<?xml version="1.0" standalone="no"?>
<!DOCTYPE svg PUBLIC "-//W3C//DTD SVG 20010904//EN"
 "http://www.w3.org/TR/2001/REC-SVG-20010904/DTD/svg10.dtd">
<svg version="1.0" xmlns="http://www.w3.org/2000/svg"
 width="2048.000000pt" height="2048.000000pt" viewBox="0 0 2048.000000 2048.000000"
 preserveAspectRatio="xMidYMid meet">

<!-- 刀身（银灰色，模拟金属质感） -->
<g transform="translate(0.000000,2048.000000) scale(0.100000,-0.100000)"
fill="#c0c0c0" stroke="none">
<path d="M5735 16717 c-139 -36 -234 -100 -440 -298 -88 -85 -183 -174 -210
-198 -117 -104 -268 -245 -400 -372 -186 -180 -300 -288 -475 -450 -450 -417
-762 -711 -938 -885 l-174 -171 17 -34 c30 -57 181 -283 302 -453 64 -88 130
-181 147 -205 17 -24 63 -87 102 -140 39 -53 113 -154 164 -226 52 -71 153
-204 225 -295 72 -91 146 -185 165 -210 19 -25 66 -84 105 -131 38 -47 117
-144 175 -215 94 -115 175 -210 510 -593 139 -158 567 -641 663 -747 208 -231
825 -872 1211 -1259 295 -295 371 -368 292 -277 -15 17 -17 25 -8 34 9 9 15 9
25 -1 10 -11 9 -13 -3 -7 -8 4 -6 0 4 -8 32 -26 49 -21 30 9 -9 14 -20 25 -25
25 -5 0 -9 4 -9 9 0 5 14 8 31 7 41 -3 46 10 6 19 -22 5 -26 9 -14 12 9 2 17
9 17 15 0 5 7 7 15 4 9 -3 18 1 21 9 4 8 10 15 16 15 15 0 38 27 38 44 0 9 7
16 16 16 9 0 18 9 21 20 3 11 10 20 17 20 6 0 17 9 24 20 7 11 19 20 27 20 8
0 15 6 15 14 0 9 7 12 20 9 13 -4 20 0 20 10 0 8 9 17 20 20 15 4 20 14 20 36
0 28 3 31 29 31 16 0 31 -6 34 -12 4 -10 7 -10 18 0 11 10 11 12 -1 12 -11 1
-10 4 4 15 10 8 22 12 27 10 4 -3 10 -1 14 5 3 5 15 10 26 10 22 0 42 40 33
65 -5 12 2 15 30 15 33 0 37 3 43 30 6 31 26 43 21 13 -2 -11 3 -18 12 -18 11
0 14 9 12 37 -3 33 -1 38 17 38 12 0 21 5 21 12 0 6 3 8 6 5 4 -4 2 -13 -5
-21 -9 -11 -8 -15 3 -19 8 -3 20 0 26 8 8 10 8 14 -2 18 -10 4 -10 8 2 16 8 6
10 11 4 11 -7 0 -14 10 -17 21 -4 16 -11 20 -23 15 -17 -6 -17 -6 -1 12 13 15
14 21 4 32 -10 12 -9 12 6 0 10 -7 16 -19 13 -27 -3 -7 1 -13 10 -13 8 0 17
-7 20 -15 8 -19 20 -19 28 0 3 8 2 14 -3 12 -4 -1 -22 13 -38 31 -35 36 -58
42 -48 13 3 -11 1 -22 -5 -26 -5 -3 -10 -1 -10 6 0 7 -9 22 -20 34 -13 14 -16
25 -10 35 8 13 10 12 10 -2 0 -10 7 -18 15 -18 8 0 15 3 15 7 0 14 -134 142
-143 136 -6 -4 -7 -1 -2 6 5 9 -45 63 -149 163 -86 83 -155 152 -153 155 5 5
35 -24 522 -506 398 -393 569 -560 875 -851 113 -107 264 -251 336 -320 72
-69 241 -228 375 -355 283 -266 572 -551 587 -579 9 -18 31 0 208 173 284 275
403 360 533 378 l55 8 12 48 c7 26 20 60 30 75 18 28 217 235 394 411 225 223
637 628 893 876 148 143 273 267 278 277 7 12 -2 26 -35 60 -1512 1502 -5618
5594 -5806 5785 -303 307 -319 323 -375 357 -126 79 -191 98 -355 102 -89 2
-152 -1 -185 -9z m1650 -5907 c3 -5 1 -10 -4 -10 -6 0 -11 5 -11 10 0 6 2 10
4 10 3 0 8 -4 11 -10z m425 -640 c0 -5 -5 -10 -11 -10 -5 0 -7 5 -4 10 3 6 8
10 11 10 2 0 4 -4 4 -10z m-50 -50 c0 -11 -4 -20 -9 -20 -11 0 -22 26 -14 34
12 12 23 5 23 -14z m-103 -92 c-3 -8 -6 -5 -6 6 -1 11 2 17 5 13 3 -3 4 -12 1
-19z m-157 -98 c0 -5 -7 -10 -16 -10 -8 0 -12 5 -9 10 3 6 10 10 16 10 5 0 9
-4 9 -10z m-348 -310 c4 0 8 -8 8 -17 0 -13 -7 -10 -30 12 -16 16 -30 33 -30
37 0 5 10 0 22 -12 12 -11 25 -20 30 -20z"/>
</g>

<!-- 刀柄（深棕色，模拟木质手柄） -->
<g transform="translate(0.000000,2048.000000) scale(0.100000,-0.100000)"
fill="#8B4513" stroke="none">
<path d="M12519 9921 c-301 -290 -885 -858 -1122 -1091 l-158 -156 67 -68 c80
-79 122 -106 235 -147 407 -148 565 -290 861 -769 187 -304 408 -606 633 -864
269 -309 630 -665 960 -946 61 -52 155 -133 210 -180 115 -98 213 -180 410
-340 223 -182 353 -299 429 -386 128 -147 194 -316 196 -499 1 -152 18 -271
45 -330 87 -183 242 -299 475 -356 119 -30 349 -14 475 33 109 40 308 163 440
271 380 312 651 643 719 878 56 192 49 436 -16 599 -49 122 -82 170 -220 310
-158 162 -1425 1417 -1943 1925 -286 280 -565 555 -620 611 -55 55 -221 217
-370 360 -148 142 -392 378 -541 524 -407 398 -562 549 -739 721 l-161 157
-265 -257z m493 -902 c57 -14 157 -87 189 -137 79 -124 55 -307 -53 -413 -140
-137 -341 -137 -478 0 -99 99 -127 228 -78 355 64 169 225 243 420 195z m3261
-3373 c34 -8 82 -30 113 -51 156 -108 204 -303 109 -450 -98 -152 -270 -214
-429 -155 -69 26 -155 110 -193 188 -38 81 -39 184 -2 263 47 99 137 174 249
205 60 16 84 16 153 0z"/>
</g>

<!-- 细节点缀（刀刃高光，增强金属质感） -->
<g transform="translate(0.000000,2048.000000) scale(0.100000,-0.100000)"
fill="#e0e0e0" stroke="none" opacity="0.7">
<path d="M7435 9810 c3 -5 10 -10 16 -10 5 0 9 5 9 10 0 6 -7 10 -16 10 -8 0
-12 -4 -9 -10z"/>
<path d="M7400 9790 c0 -5 7 -10 15 -10 8 0 15 5 15 10 0 6 -7 10 -15 10 -8 0
-15 -4 -15 -10z"/>
<path d="M7360 9730 c0 -5 5 -10 11 -10 5 0 7 5 4 10 -3 6 -8 10 -11 10 -2 0
-4 -4 -4 -10z"/>
<path d="M7241 9534 c0 -11 3 -14 6 -6 3 7 2 16 -1 19 -3 4 -6 -2 -5 -13z"/>
<path d="M7266 9505 c4 -8 11 -15 16 -15 6 0 5 6 -2 15 -7 8 -14 15 -16 15 -2
0 -1 -7 2 -15z"/>
<path d="M7247 9469 c7 -7 15 -10 18 -7 3 3 -2 9 -12 12 -14 6 -15 5 -6 -5z"/>
</g>
</svg>